<svg width="118" height="88" viewBox="0 0 118 88" fill="none" xmlns="http://www.w3.org/2000/svg">
<path d="M4.27241 85.1525L3.21448 87.89H0L6.06276 72.9508H7.77172L13.7395 87.89H10.5251L9.46713 85.1525H4.27241ZM6.87655 78.2744L5.27609 82.3463H8.44989L6.87655 78.2744ZM19.748 77.0639H19.9108C20.7789 77.0639 21.6062 77.2427 22.4064 77.6004C23.1931 77.958 23.8306 78.4395 24.2917 79.0448L22.7862 80.4754C22.4607 80.104 22.0267 79.8014 21.4706 79.5675C20.9145 79.3337 20.4126 79.2098 19.9515 79.2098H19.7887C19.3005 79.2236 18.9071 79.3199 18.6087 79.5125C18.3103 79.6913 18.1611 79.9527 18.1611 80.2828C18.1611 80.5855 18.2968 80.8056 18.5545 80.9431C18.8122 81.0807 19.2598 81.1907 19.9108 81.2458L20.6297 81.3283C23.2202 81.5071 24.5223 82.6214 24.5223 84.6573C24.5223 85.6203 24.1425 86.4181 23.3694 87.0509C22.5963 87.6837 21.5791 88.0001 20.3041 88.0001H20.1956C19.1648 88.0001 18.1883 87.8075 17.266 87.4361C16.3572 87.0646 15.6791 86.5694 15.2451 85.9504L16.7641 84.506C17.0761 84.8774 17.5508 85.18 18.2154 85.4277C18.88 85.6753 19.531 85.7991 20.1685 85.7991H20.277C21.3349 85.7991 21.8503 85.4552 21.8503 84.7536C21.8503 84.3547 21.7147 84.0795 21.4299 83.9282C21.1451 83.7769 20.6839 83.6669 20.0464 83.6118L19.4632 83.5431C16.832 83.3092 15.5028 82.2775 15.5028 80.4479C15.5028 79.3887 15.9097 78.5771 16.7234 77.9718C17.5237 77.3803 18.5274 77.0776 19.748 77.0639ZM37.4074 87.8763H35.617L35.4678 86.3631C34.6133 87.4636 33.4469 88.0001 31.9821 88.0001C30.5037 88.0001 29.283 87.4773 28.3064 86.4181C27.3299 85.3589 26.8416 84.0658 26.8416 82.5389C26.8416 80.9982 27.3299 79.7051 28.3064 78.6458C29.283 77.5866 30.5037 77.0501 31.9821 77.0501C33.4605 77.0501 34.6133 77.6004 35.4678 78.7146L35.617 77.2014H37.4074V87.8763ZM32.2262 85.3864C32.9586 85.3864 33.5961 85.125 34.1251 84.6023C34.654 84.0796 34.9389 83.3917 34.9389 82.5526C34.9389 81.7135 34.6676 81.0257 34.1251 80.4892C33.5825 79.9527 32.9451 79.6913 32.2262 79.6913C31.4938 79.6913 30.8563 79.9527 30.3274 80.4892C29.7848 81.0257 29.5136 81.7135 29.5136 82.5526C29.5136 83.3917 29.7848 84.0796 30.3138 84.6023C30.8428 85.125 31.4802 85.3864 32.2262 85.3864ZM48.3257 87.8763L46.5218 85.0425C46.1828 84.5198 45.8844 84.1621 45.6267 83.9695C45.369 83.7907 45.0028 83.6944 44.528 83.6944H43.7956V87.8763H41.1237V72.937H43.7956V81.0944H44.4467C44.9214 81.0944 45.2876 80.9982 45.5453 80.8193C45.803 80.6405 46.0878 80.2828 46.4269 79.7463L48.068 77.2014H51.0384L48.6648 80.8193C48.1359 81.6585 47.634 82.1812 47.1729 82.3738C47.6476 82.5251 48.1766 83.0616 48.7733 83.9695L51.2961 87.8763H48.3257ZM63.3809 87.8763H61.5906L61.4414 86.3631C60.5869 87.4636 59.4205 88.0001 57.9556 88.0001C56.4772 88.0001 55.2566 87.4773 54.28 86.4181C53.3035 85.3589 52.8152 84.0658 52.8152 82.5389C52.8152 80.9982 53.3035 79.7051 54.28 78.6458C55.2566 77.5866 56.4772 77.0501 57.9556 77.0501C59.434 77.0501 60.5869 77.6004 61.4414 78.7146L61.5906 77.2014H63.3809V87.8763ZM58.2133 85.3864C58.9458 85.3864 59.5832 85.125 60.1122 84.6023C60.6547 84.0796 60.926 83.3917 60.926 82.5526C60.926 81.7135 60.6547 81.0257 60.1122 80.4892C59.5697 79.9527 58.9322 79.6913 58.2133 79.6913C57.4809 79.6913 56.8435 79.9527 56.3145 80.4892C55.772 81.0257 55.5007 81.7135 55.5007 82.5526C55.5007 83.3917 55.772 84.0796 56.3009 84.6023C56.8299 85.125 57.4674 85.3864 58.2133 85.3864ZM69.6607 72.937V78.2469C70.3524 77.449 71.2747 77.0501 72.4411 77.0501C73.9195 77.0501 75.1402 77.5866 76.1032 78.6458C77.0662 79.7051 77.5545 80.9982 77.5545 82.5389C77.5545 84.0796 77.0662 85.3726 76.1032 86.4181C75.1402 87.4773 73.9195 88.0001 72.4411 88.0001C70.9628 88.0001 69.7963 87.4498 68.9283 86.3631L68.7791 87.8763H66.9887V72.937H69.6607ZM74.0687 80.4892C73.5262 79.9527 72.8887 79.6913 72.1699 79.6913C71.4375 79.6913 70.8 79.9527 70.271 80.4892C69.7285 81.0257 69.4572 81.7135 69.4572 82.5526C69.4572 83.3917 69.7285 84.0796 70.271 84.6023C70.8136 85.125 71.451 85.3864 72.1699 85.3864C72.9159 85.3864 73.5533 85.125 74.0823 84.6023C74.6113 84.0796 74.8825 83.3917 74.8825 82.5526C74.869 81.6997 74.5977 81.0257 74.0687 80.4892ZM90.4395 87.8763H88.6492L88.5 86.3631C87.6455 87.4636 86.4791 88.0001 85.0143 88.0001C83.5494 88.0001 82.3152 87.4773 81.3386 86.4181C80.3621 85.3589 79.8738 84.0658 79.8738 82.5389C79.8738 80.9982 80.3621 79.7051 81.3386 78.6458C82.3152 77.5866 83.5359 77.0501 85.0143 77.0501C86.4926 77.0501 87.6455 77.6004 88.5 78.7146L88.6492 77.2014H90.4395V87.8763ZM85.2584 85.3864C85.9908 85.3864 86.6283 85.125 87.1572 84.6023C87.6998 84.0796 87.971 83.3917 87.971 82.5526C87.971 81.7135 87.6998 81.0257 87.1572 80.4892C86.6147 79.9527 85.9772 79.6913 85.2584 79.6913C84.526 79.6913 83.8885 79.9527 83.3595 80.4892C82.817 81.0257 82.5457 81.7135 82.5457 82.5526C82.5457 83.3917 82.817 84.0796 83.346 84.6023C83.8885 85.125 84.526 85.3864 85.2584 85.3864ZM99.6354 77.0639C101.127 77.0639 102.253 77.5316 103.04 78.467C103.826 79.4024 104.22 80.668 104.22 82.25V87.8763H101.548V82.415C101.548 80.5992 100.775 79.6776 99.2149 79.6776C98.4147 79.6776 97.8044 79.9252 97.3568 80.4204C96.9228 80.9156 96.7057 81.6585 96.7057 82.6489V87.8763H94.0338V77.2014H95.8241L96.014 78.8659C96.7464 77.6691 97.9536 77.0639 99.6354 77.0639ZM115.03 87.8763L113.226 85.0425C112.887 84.5198 112.588 84.1621 112.331 83.9695C112.073 83.7907 111.707 83.6944 111.232 83.6944H110.5V87.8763H107.828V72.937H110.5V81.0944H111.151C111.625 81.0944 111.991 80.9982 112.249 80.8193C112.507 80.6405 112.792 80.2828 113.131 79.7463L114.772 77.2014H117.729L115.369 80.8193C114.84 81.6585 114.338 82.1812 113.877 82.3738C114.351 82.5251 114.88 83.0616 115.477 83.9695L118 87.8763H115.03Z" fill="#3F4041"/>
<path d="M39.4121 45.7668L35.7229 49.3856C33.7834 51.2881 31.8438 53.1907 29.9043 55.0932V45.7802L29.9179 45.7668H39.4121Z" fill="#E41D32"/>
<path d="M72.3163 45.7668V57.8738H32.7524L38.3947 52.3392L40.9175 49.8779L45.095 45.7668H72.3163Z" fill="#E41D32"/>
<path d="M72.3166 19.0782V41.8154H49.1235C56.7461 34.3516 64.5856 26.6617 72.3166 19.0782Z" fill="#E41D32"/>
<path d="M88.9042 2.79382V57.8738H76.3311V15.1269C78.5961 12.9051 80.8612 10.6833 83.1262 8.44817L88.9042 2.79382Z" fill="#E41D32"/>
<path d="M86.0698 0C70.879 14.9142 56.5427 28.9769 43.4406 41.8289H33.8921L76.0194 0H86.0698Z" fill="#E41D32"/>
<path d="M70.3643 0.00109863L29.9053 40.1669V0.00109863H70.3643Z" fill="#E41D32"/>
</svg>
