<svg width="127" height="37" viewBox="0 0 127 37" fill="none" xmlns="http://www.w3.org/2000/svg">
<path d="M1.64551 12.3407H5.91629C6.72515 12.3407 7.50087 12.6587 8.07282 13.2248C8.64477 13.7909 8.96608 14.5587 8.96608 15.3593V35.2653H4.6953C3.88644 35.2653 3.11072 34.9472 2.53877 34.3811C1.96682 33.815 1.64551 33.0472 1.64551 32.2466V12.3407Z" fill="#022F5E"/>
<path d="M13.124 12.3407H17.6261C18.375 12.3407 19.0933 12.6352 19.6229 13.1593C20.1525 13.6835 20.45 14.3944 20.45 15.1357C21.2642 14.2033 22.225 13.407 23.2954 12.7773C24.6071 12.0499 26.0959 11.6944 27.5984 11.7497C29.2041 11.7029 30.7928 12.0855 32.1973 12.8571C33.4464 13.5673 34.4281 14.6605 34.9943 15.9716C35.4098 15.4314 35.857 14.9159 36.3336 14.4277C37.3842 13.3522 38.6951 12.5605 40.1418 12.1277C41.0142 11.8706 41.9211 11.7467 42.8312 11.7604C45.3055 11.7604 47.2598 12.4383 48.6942 13.7941C50.1285 15.1499 50.8457 16.9867 50.8457 19.3043V35.2759H43.4928V21.748C43.5282 21.2159 43.4566 20.6822 43.2821 20.1777C43.1076 19.6733 42.8337 19.2081 42.4762 18.8092C42.1148 18.4592 41.6839 18.1871 41.2108 18.0103C40.7377 17.8334 40.2327 17.7556 39.7277 17.7817C39.1726 17.7751 38.6229 17.89 38.118 18.1182C37.6131 18.3465 37.1654 18.6824 36.807 19.102C36.0181 19.9858 35.6218 21.2759 35.6182 22.9725V35.2653H31.3152C30.5063 35.2653 29.7306 34.9472 29.1587 34.3811C28.5867 33.815 28.2654 33.0472 28.2654 32.2466V21.748C28.3003 21.2164 28.229 20.6832 28.0555 20.1789C27.882 19.6746 27.6097 19.2092 27.2542 18.8092C26.9106 18.4744 26.5028 18.211 26.0547 18.0345C25.6067 17.858 25.1275 17.7721 24.6455 17.7817C24.0598 17.7635 23.4774 17.8745 22.9404 18.1064C21.2945 18.8411 20.4482 20.3815 20.4016 22.7276V35.2653H13.124V12.3407Z" fill="#022F5E"/>
<path d="M62.1624 24.7826V35.2653H54.8364V0H59.1395C59.9483 0 60.7241 0.318034 61.296 0.884137C61.868 1.45024 62.1893 2.21804 62.1893 3.01863V21.402L68.8698 12.3514H77.2822L68.773 22.6264L79.1164 35.2653H70.5749L62.1624 24.7826Z" fill="#022F5E"/>
<path d="M103.084 12.3407H107.689C108.41 12.3421 109.102 12.6264 109.612 13.1313C110.122 13.6362 110.409 14.3205 110.41 15.0346C111.229 14.145 112.179 13.3839 113.229 12.7773C114.578 12.052 116.101 11.7042 117.634 11.771C118.815 11.7538 119.99 11.9523 121.098 12.3567C122.077 12.7229 122.97 13.2826 123.723 14.0017C124.455 14.7102 125.028 15.5626 125.407 16.504C125.808 17.5217 126.008 18.6059 125.998 19.6983V35.2653H121.722C120.913 35.2653 120.137 34.9472 119.566 34.3811C118.994 33.815 118.672 33.0472 118.672 32.2466V21.748C118.708 21.2142 118.634 20.6788 118.456 20.1739C118.277 19.6689 117.998 19.2048 117.634 18.8092C117.259 18.4575 116.816 18.185 116.332 18.0083C115.847 17.8317 115.331 17.7546 114.816 17.7817C114.242 17.7686 113.672 17.8752 113.143 18.0944C112.614 18.3136 112.137 18.6406 111.744 19.0541C110.923 19.9024 110.479 21.1269 110.41 22.7276V35.2653H103.084V12.3407Z" fill="#022F5E"/>
<path d="M8.34738 1.42146C7.9493 1.02508 7.47446 0.712321 6.95134 0.501916C6.42822 0.29151 5.86756 0.18779 5.30297 0.196972C4.73924 0.188205 4.17952 0.292134 3.65732 0.502537C3.13513 0.712939 2.66121 1.02549 2.26394 1.42146C1.84836 1.82009 1.52131 2.3001 1.30367 2.83085C1.08603 3.3616 0.982579 3.93144 0.999915 4.50398C0.985958 5.06977 1.09113 5.63223 1.30875 6.15559C1.52637 6.67896 1.85166 7.15175 2.26394 7.54391C2.66121 7.93989 3.13513 8.25243 3.65732 8.46284C4.17952 8.67324 4.73924 8.77717 5.30297 8.7684C5.86756 8.77758 6.42822 8.67386 6.95134 8.46346C7.47446 8.25305 7.9493 7.94029 8.34738 7.54391C8.75868 7.15129 9.08298 6.67828 9.29966 6.15494C9.51634 5.63161 9.62067 5.06938 9.60602 4.50398C9.62405 3.93183 9.52145 3.36223 9.30474 2.8315C9.08804 2.30077 8.76199 1.82055 8.34738 1.42146ZM6.62078 5.80301C6.4486 5.97492 6.24314 6.11067 6.0167 6.20215C5.79027 6.29363 5.54751 6.33895 5.30297 6.33539C5.05929 6.33853 4.81746 6.29301 4.59196 6.20153C4.36646 6.11006 4.16191 5.97451 3.99054 5.80301C3.81465 5.63309 3.6761 5.42907 3.58354 5.20372C3.49099 4.97836 3.44643 4.73652 3.45266 4.49333C3.44764 4.24996 3.49183 4.00805 3.58263 3.78183C3.67344 3.55561 3.80902 3.34964 3.98141 3.17603C4.1538 3.00242 4.35952 2.86468 4.58648 2.77091C4.81343 2.67713 5.05704 2.62922 5.30297 2.62998C5.54981 2.62779 5.79458 2.67465 6.02278 2.76779C6.25099 2.86093 6.45799 2.99844 6.63153 3.1722C6.80507 3.34595 6.94162 3.55241 7.03309 3.77934C7.12456 4.00627 7.16909 4.24906 7.16404 4.49333C7.16957 4.73691 7.12417 4.97898 7.03068 5.20436C6.93719 5.42974 6.79764 5.63355 6.62078 5.80301Z" fill="#022F5E"/>
<path d="M88.6372 36C86.8986 36.0264 85.1728 35.7021 83.565 35.047C82.1184 34.4513 80.8056 33.5773 79.703 32.4755C78.623 31.3687 77.7893 30.0503 77.2556 28.6051C76.6865 27.071 76.4022 25.4478 76.4165 23.8136C76.4028 22.1934 76.6871 20.5842 77.2556 19.0647C77.7984 17.6239 78.631 16.3072 79.703 15.1943C80.7975 14.0709 82.1115 13.1797 83.565 12.5749C86.8232 11.2971 90.4512 11.2971 93.7094 12.5749C95.1629 13.1797 96.4769 14.0709 97.5714 15.1943C98.6434 16.3072 99.476 17.6239 100.019 19.0647C100.587 20.5842 100.872 22.1934 100.858 23.8136C100.872 25.4478 100.588 27.071 100.019 28.6051C99.4851 30.0503 98.6514 31.3687 97.5714 32.4755C96.4712 33.5869 95.1583 34.4701 93.7094 35.0736C92.0997 35.7197 90.3739 36.0348 88.6372 36ZM88.6372 29.8296C89.4171 29.8456 90.1896 29.6777 90.8909 29.3398C91.5132 29.021 92.0625 28.5788 92.5046 28.0408C92.9708 27.4792 93.315 26.8286 93.5158 26.1295C93.9462 24.6077 93.9462 22.9982 93.5158 21.4764C93.3205 20.7794 92.9837 20.1291 92.5261 19.5652C92.0838 19.0287 91.5345 18.5883 90.9124 18.2715C90.2059 17.9487 89.4369 17.7816 88.6587 17.7816C87.8805 17.7816 87.1116 17.9487 86.405 18.2715C85.783 18.5883 85.2337 19.0287 84.7913 19.5652C84.3314 20.1316 83.9863 20.7806 83.7748 21.4764C83.3158 22.9942 83.3158 24.6117 83.7748 26.1295C83.9851 26.8258 84.3304 27.475 84.7913 28.0408C85.2335 28.5788 85.7827 29.021 86.405 29.3398C87.101 29.6695 87.8658 29.8318 88.6372 29.8136V29.8296Z" fill="#022F5E"/>
</svg>
