<svg xmlns:xlink="http://www.w3.org/1999/xlink" xmlns="http://www.w3.org/2000/svg" width="128" height="31" viewBox="0 0 9439 2608" fill="none">
<path d="M2151.05 0V2581.26C1438.26 2581.26 860.422 2003.43 860.422 1290.63C860.422 577.835 1438.26 0 2151.05 0Z" fill="#0066FF"/>
<rect y="0.00292969" width="860.421" height="2581.26" fill="#0066FF"/>
<path d="M6841.02 2466.83C6830.79 2492.74 6820.56 2514.57 6810.33 2532.3C6800.78 2550.03 6789.87 2564.35 6777.6 2575.26C6766 2586.86 6752.7 2595.04 6737.7 2599.82C6723.38 2605.27 6706.67 2608 6687.58 2608C6677.35 2608 6667.12 2607.32 6656.89 2605.95C6646.66 2604.59 6636.77 2602.2 6627.22 2598.79V2519C6634.72 2522.41 6643.25 2525.14 6652.79 2527.18C6663.02 2529.91 6671.55 2531.28 6678.37 2531.28C6696.1 2531.28 6710.76 2526.84 6722.36 2517.98C6734.63 2509.79 6743.84 2497.86 6749.98 2482.17L6785.78 2393.17L6576.07 1867.36H6674.28L6828.75 2300.08H6830.79L6979.12 1867.36H7071.19L6841.02 2466.83Z" fill="#040404"/>
<path d="M5761.23 1867.36H5843.07V1945.11H5845.12C5884.67 1885.09 5941.62 1855.09 6015.95 1855.09C6048.69 1855.09 6078.36 1861.91 6104.95 1875.55C6131.55 1889.18 6150.31 1912.37 6161.22 1945.11C6178.95 1916.46 6202.14 1894.3 6230.78 1878.61C6260.11 1862.93 6292.16 1855.09 6326.94 1855.09C6353.54 1855.09 6377.41 1858.15 6398.55 1864.29C6420.37 1869.75 6438.79 1878.61 6453.79 1890.89C6469.48 1903.17 6481.41 1919.19 6489.59 1938.97C6498.46 1958.07 6502.89 1981.25 6502.89 2008.53V2396.24H6415.94V2049.45C6415.94 2033.08 6414.58 2017.74 6411.85 2003.42C6409.12 1989.1 6404 1976.82 6396.5 1966.59C6389 1955.68 6378.43 1947.15 6364.79 1941.02C6351.83 1934.88 6334.78 1931.81 6313.64 1931.81C6270.68 1931.81 6236.92 1944.08 6212.37 1968.64C6187.82 1993.19 6175.54 2025.92 6175.54 2066.84V2396.24H6088.59V2049.45C6088.59 2032.4 6086.88 2016.72 6083.47 2002.39C6080.74 1988.07 6075.63 1975.8 6068.13 1965.57C6060.62 1954.66 6050.39 1946.47 6037.44 1941.02C6025.16 1934.88 6009.13 1931.81 5989.36 1931.81C5964.12 1931.81 5942.3 1936.92 5923.89 1947.15C5906.15 1957.38 5891.49 1969.66 5879.9 1983.98C5868.99 1998.3 5860.8 2013.31 5855.35 2028.99C5850.57 2044 5848.19 2056.61 5848.19 2066.84V2396.24H5761.23V1867.36Z" fill="#040404"/>
<path d="M5579.03 2081.16C5577.66 2060.7 5572.89 2041.27 5564.7 2022.85C5557.2 2004.44 5546.63 1988.75 5532.99 1975.8C5520.03 1962.16 5504.35 1951.59 5485.93 1944.08C5468.2 1935.9 5448.43 1931.81 5426.6 1931.81C5404.1 1931.81 5383.64 1935.9 5365.22 1944.08C5347.49 1951.59 5332.15 1962.16 5319.19 1975.8C5306.23 1989.44 5296 2005.46 5288.5 2023.88C5281 2041.61 5276.56 2060.7 5275.2 2081.16H5579.03ZM5662.91 2228.47C5651.32 2287.81 5625.74 2332.48 5586.19 2362.48C5546.63 2392.49 5496.85 2407.49 5436.83 2407.49C5394.55 2407.49 5357.72 2400.67 5326.35 2387.03C5295.66 2373.4 5269.75 2354.3 5248.6 2329.75C5227.46 2305.2 5211.44 2275.87 5200.52 2241.77C5190.29 2207.67 5184.5 2170.5 5183.13 2130.27C5183.13 2090.03 5189.27 2053.2 5201.55 2019.79C5213.82 1986.37 5230.87 1957.38 5252.7 1932.83C5275.2 1908.28 5301.46 1889.18 5331.46 1875.55C5362.15 1861.91 5395.57 1855.09 5431.72 1855.09C5478.77 1855.09 5517.65 1864.97 5548.34 1884.75C5579.71 1903.85 5604.6 1928.4 5623.01 1958.41C5642.11 1988.41 5655.07 2021.15 5661.89 2056.61C5669.39 2092.08 5672.46 2125.83 5671.09 2157.89H5275.2C5274.52 2181.08 5277.25 2203.24 5283.38 2224.38C5289.52 2244.84 5299.41 2263.25 5313.05 2279.62C5326.69 2295.31 5344.08 2307.92 5365.22 2317.47C5386.36 2327.02 5411.26 2331.79 5439.9 2331.79C5476.73 2331.79 5506.74 2323.27 5529.92 2306.22C5553.79 2289.17 5569.48 2263.25 5576.98 2228.47H5662.91Z" fill="#040404"/>
<path d="M4668.81 2136.41C4668.81 2160.96 4671.88 2185.17 4678.02 2209.04C4684.84 2232.22 4694.73 2253.03 4707.69 2271.44C4721.33 2289.85 4738.37 2304.52 4758.83 2315.43C4779.98 2326.34 4804.53 2331.79 4832.49 2331.79C4861.81 2331.79 4886.71 2326 4907.17 2314.4C4927.63 2302.81 4944.33 2287.81 4957.29 2269.39C4970.25 2250.3 4979.46 2228.81 4984.91 2204.95C4991.05 2181.08 4994.12 2156.87 4994.12 2132.31C4994.12 2106.4 4991.05 2081.51 4984.91 2057.64C4978.78 2033.08 4968.89 2011.6 4955.25 1993.19C4942.29 1974.77 4925.24 1960.11 4904.1 1949.2C4882.96 1937.61 4857.38 1931.81 4827.37 1931.81C4798.05 1931.81 4773.16 1937.61 4752.7 1949.2C4732.24 1960.79 4715.87 1976.14 4703.59 1995.23C4691.32 2014.33 4682.45 2036.15 4677 2060.71C4671.54 2085.26 4668.81 2110.49 4668.81 2136.41ZM5078 2396.24H4991.05V2324.63H4989.01C4974.68 2353.96 4952.18 2375.1 4921.49 2388.06C4890.8 2401.02 4857.04 2407.5 4820.21 2407.5C4779.29 2407.5 4743.49 2399.99 4712.8 2384.99C4682.79 2369.99 4657.56 2349.87 4637.1 2324.63C4617.32 2299.4 4602.32 2270.07 4592.09 2236.66C4581.86 2203.24 4576.74 2167.78 4576.74 2130.27C4576.74 2092.76 4581.52 2057.3 4591.07 2023.88C4601.3 1990.46 4616.3 1961.48 4636.08 1936.92C4656.54 1911.69 4681.77 1891.91 4711.78 1877.59C4742.47 1862.59 4777.93 1855.09 4818.17 1855.09C4831.81 1855.09 4846.47 1856.45 4862.16 1859.18C4877.84 1861.91 4893.53 1866.68 4909.21 1873.5C4924.9 1879.64 4939.56 1888.16 4953.2 1899.07C4967.52 1909.3 4979.46 1922.26 4989.01 1937.95H4991.05V1665.83H5078V2396.24Z" fill="#040404"/>
<path d="M4524.46 2394.2C4509.45 2403.06 4488.65 2407.49 4462.06 2407.49C4439.55 2407.49 4421.48 2401.36 4407.84 2389.08C4394.88 2376.12 4388.4 2355.32 4388.4 2326.68C4364.53 2355.32 4336.57 2376.12 4304.52 2389.08C4273.15 2401.36 4239.05 2407.49 4202.22 2407.49C4178.35 2407.49 4155.5 2404.77 4133.68 2399.31C4112.54 2393.85 4094.12 2385.33 4078.44 2373.74C4062.75 2362.14 4050.14 2347.14 4040.59 2328.73C4031.72 2309.63 4027.29 2286.78 4027.29 2260.19C4027.29 2230.18 4032.4 2205.63 4042.63 2186.53C4052.86 2167.44 4066.16 2152.09 4082.53 2140.5C4099.58 2128.22 4118.68 2119.01 4139.82 2112.88C4161.64 2106.74 4183.8 2101.62 4206.31 2097.53C4230.18 2092.76 4252.69 2089.35 4273.83 2087.3C4295.65 2084.57 4314.75 2081.16 4331.11 2077.07C4347.48 2072.3 4360.44 2065.82 4369.99 2057.64C4379.54 2048.77 4384.31 2036.15 4384.31 2019.79C4384.31 2000.69 4380.56 1985.34 4373.06 1973.75C4366.24 1962.16 4357.03 1953.29 4345.44 1947.15C4334.52 1941.02 4321.91 1936.92 4307.59 1934.88C4293.95 1932.83 4280.31 1931.81 4266.67 1931.81C4229.84 1931.81 4199.15 1938.97 4174.6 1953.29C4150.05 1966.93 4136.75 1993.19 4134.7 2032.06H4047.75C4049.11 1999.33 4055.93 1971.71 4068.21 1949.2C4080.48 1926.69 4096.85 1908.62 4117.31 1894.98C4137.77 1880.66 4160.96 1870.43 4186.87 1864.29C4213.47 1858.15 4241.77 1855.09 4271.78 1855.09C4295.65 1855.09 4319.18 1856.79 4342.37 1860.2C4366.24 1863.61 4387.72 1870.77 4406.81 1881.68C4425.91 1891.91 4441.25 1906.58 4452.85 1925.67C4464.44 1944.77 4470.24 1969.66 4470.24 2000.35V2272.46C4470.24 2292.92 4471.26 2307.92 4473.31 2317.47C4476.04 2327.02 4484.22 2331.79 4497.86 2331.79C4505.36 2331.79 4514.23 2330.09 4524.46 2326.68V2394.2ZM4383.29 2123.11C4372.37 2131.29 4358.05 2137.43 4340.32 2141.52C4322.59 2144.93 4303.83 2148 4284.06 2150.73C4264.96 2152.77 4245.52 2155.5 4225.75 2158.91C4205.97 2161.64 4188.24 2166.41 4172.55 2173.23C4156.87 2180.05 4143.91 2189.94 4133.68 2202.9C4124.13 2215.17 4119.36 2232.22 4119.36 2254.05C4119.36 2268.37 4122.09 2280.65 4127.54 2290.87C4133.68 2300.42 4141.18 2308.27 4150.05 2314.4C4159.59 2320.54 4170.51 2324.97 4182.78 2327.7C4195.06 2330.43 4208.02 2331.79 4221.66 2331.79C4250.3 2331.79 4274.85 2328.04 4295.31 2320.54C4315.77 2312.36 4332.48 2302.47 4345.44 2290.87C4358.39 2278.6 4367.94 2265.64 4374.08 2252C4380.22 2237.68 4383.29 2224.38 4383.29 2212.11V2123.11Z" fill="#040404"/>
<path d="M3865.55 2037.18C3858.73 2003.76 3844.4 1977.84 3822.58 1959.43C3800.76 1941.02 3771.43 1931.81 3734.6 1931.81C3703.23 1931.81 3676.98 1937.61 3655.83 1949.2C3634.69 1960.79 3617.64 1976.14 3604.69 1995.23C3592.41 2014.33 3583.54 2036.49 3578.09 2061.73C3572.63 2086.28 3569.9 2111.85 3569.9 2138.45C3569.9 2163 3572.63 2186.87 3578.09 2210.06C3584.23 2233.25 3593.43 2254.05 3605.71 2272.46C3617.98 2290.19 3634.01 2304.51 3653.79 2315.43C3673.57 2326.34 3697.09 2331.79 3724.37 2331.79C3767.34 2331.79 3800.76 2320.54 3824.63 2298.04C3849.18 2275.53 3864.18 2243.82 3869.64 2202.9H3958.64C3949.09 2268.37 3924.54 2318.84 3884.98 2354.3C3846.11 2389.76 3792.91 2407.49 3725.4 2407.49C3685.16 2407.49 3649.36 2401.02 3617.98 2388.06C3587.29 2375.1 3561.38 2356.69 3540.24 2332.82C3519.78 2308.95 3504.09 2280.65 3493.18 2247.91C3482.95 2214.49 3477.84 2178.01 3477.84 2138.45C3477.84 2098.9 3482.95 2062.07 3493.18 2027.97C3503.41 1993.19 3518.76 1963.18 3539.21 1937.95C3560.36 1912.03 3586.61 1891.91 3617.98 1877.59C3649.36 1862.59 3685.84 1855.09 3727.44 1855.09C3757.45 1855.09 3785.41 1858.84 3811.33 1866.34C3837.92 1873.16 3861.11 1884.07 3880.89 1899.07C3901.35 1914.08 3918.06 1933.17 3931.02 1956.36C3943.97 1978.87 3952.16 2005.8 3955.57 2037.18H3865.55Z" fill="#040404"/>
<path d="M2983.29 2094.46H3230.85L3109.11 1753.81H3107.07L2983.29 2094.46ZM3055.92 1665.83H3163.33L3448.74 2396.24H3341.33L3261.54 2176.3H2952.6L2870.76 2396.24H2771.53L3055.92 1665.83Z" fill="#040404"/>
<path d="M8709.21 690.861H8983.09C9040.42 690.861 9083.41 678.122 9112.08 652.644C9140.74 627.167 9155.07 585.766 9155.07 528.441C9155.07 473.24 9140.74 433.431 9112.08 409.015C9083.41 383.537 9040.42 370.798 8983.09 370.798H8709.21V690.861ZM8459.21 176.531H9072.27C9123.22 176.531 9168.87 185.024 9209.21 202.009C9250.61 217.932 9285.64 240.225 9314.3 268.888C9344.03 297.55 9366.32 330.989 9381.18 369.206C9397.11 406.361 9405.07 446.7 9405.07 490.225C9405.07 557.103 9390.74 614.959 9362.07 663.791C9334.47 712.623 9288.83 749.778 9225.13 775.255V778.44C9255.92 786.933 9281.4 800.202 9301.57 818.249C9321.73 835.234 9338.19 855.935 9350.93 880.351C9363.67 903.705 9372.69 929.714 9378 958.376C9384.37 987.038 9388.61 1015.7 9390.74 1044.36C9391.8 1062.41 9392.86 1083.64 9393.92 1108.06C9394.98 1132.47 9396.58 1157.42 9398.7 1182.9C9401.88 1208.38 9406.13 1232.79 9411.44 1256.15C9417.81 1278.44 9426.83 1297.55 9438.51 1313.47H9188.51C9174.71 1277.38 9166.22 1234.38 9163.03 1184.49C9159.85 1134.6 9155.07 1086.83 9148.7 1041.18C9140.21 981.73 9122.16 938.206 9094.56 910.605C9066.96 883.005 9021.84 869.204 8959.21 869.204H8709.21V1313.47H8459.21V176.531Z" fill="#040404"/>
<path d="M7420.49 749.778C7420.49 797.549 7425.8 844.258 7436.42 889.905C7448.09 934.491 7466.14 974.831 7490.55 1010.92C7514.97 1047.02 7546.82 1076.21 7586.1 1098.5C7625.37 1119.73 7673.14 1130.35 7729.41 1130.35C7785.67 1130.35 7833.44 1119.73 7872.72 1098.5C7912 1076.21 7943.84 1047.02 7968.26 1010.92C7992.68 974.831 8010.19 934.491 8020.81 889.905C8032.49 844.258 8038.32 797.549 8038.32 749.778C8038.32 699.885 8032.49 651.583 8020.81 604.874C8010.19 558.165 7992.68 516.764 7968.26 480.671C7943.84 443.516 7912 414.323 7872.72 393.092C7833.44 370.799 7785.67 359.652 7729.41 359.652C7673.14 359.652 7625.37 370.799 7586.1 393.092C7546.82 414.323 7514.97 443.516 7490.55 480.671C7466.14 516.764 7448.09 558.165 7436.42 604.874C7425.8 651.583 7420.49 699.885 7420.49 749.778ZM7170.49 749.778C7170.49 664.853 7183.23 586.297 7208.71 514.11C7234.19 440.862 7270.81 377.168 7318.58 323.028C7366.35 268.888 7424.74 226.426 7493.74 195.64C7563.8 164.855 7642.36 149.462 7729.41 149.462C7817.52 149.462 7896.07 164.855 7965.08 195.64C8034.08 226.426 8092.46 268.888 8140.23 323.028C8188.01 377.168 8224.63 440.862 8250.11 514.11C8275.58 586.297 8288.32 664.853 8288.32 749.778C8288.32 832.581 8275.58 910.075 8250.11 982.262C8224.63 1053.39 8188.01 1115.49 8140.23 1168.57C8092.46 1221.65 8034.08 1263.58 7965.08 1294.36C7896.07 1324.09 7817.52 1338.95 7729.41 1338.95C7642.36 1338.95 7563.8 1324.09 7493.74 1294.36C7424.74 1263.58 7366.35 1221.65 7318.58 1168.57C7270.81 1115.49 7234.19 1053.39 7208.71 982.262C7183.23 910.075 7170.49 832.581 7170.49 749.778Z" fill="#040404"/>
<path d="M6289.58 1103.28H6512.51C6548.6 1103.28 6583.64 1097.44 6617.61 1085.76C6651.58 1074.09 6681.83 1054.98 6708.37 1028.44C6734.91 1000.84 6756.14 965.276 6772.06 921.752C6787.99 878.228 6795.95 825.149 6795.95 762.517C6795.95 705.192 6790.11 653.706 6778.43 608.059C6767.82 561.35 6749.77 521.541 6724.29 488.632C6698.82 455.724 6664.85 430.777 6622.38 413.792C6580.98 395.745 6529.5 386.722 6467.92 386.722H6289.58V1103.28ZM6039.58 176.531H6530.03C6603.27 176.531 6671.21 188.209 6733.85 211.563C6797.54 234.918 6852.21 269.949 6897.86 316.658C6944.57 363.367 6980.66 421.753 7006.14 491.817C7032.68 561.88 7045.95 644.152 7045.95 738.631C7045.95 821.434 7035.33 897.867 7014.1 967.93C6992.87 1037.99 6960.49 1098.5 6916.97 1149.46C6874.51 1200.41 6820.9 1240.75 6756.14 1270.48C6692.45 1299.14 6617.07 1313.47 6530.03 1313.47H6039.58V176.531Z" fill="#040404"/>
<path d="M5569.96 176.531H5819.96V1313.47H5569.96V176.531Z" fill="#040404"/>
<path d="M4848.1 386.722H4507.34V176.531H5438.87V386.722H5098.1V1313.47H4848.1V386.722Z" fill="#040404"/>
<path d="M4105.56 1010.92C4126.79 982.262 4143.78 946.699 4156.52 904.237C4169.26 861.774 4175.63 810.288 4175.63 749.778C4175.63 699.885 4169.79 651.583 4158.11 604.874C4147.5 558.165 4129.98 516.764 4105.56 480.671C4081.15 443.516 4049.3 414.323 4010.02 393.092C3970.74 370.799 3922.97 359.652 3866.71 359.652C3810.45 359.652 3762.68 370.799 3723.4 393.092C3684.12 414.323 3652.27 443.516 3627.86 480.671C3603.44 516.764 3585.39 558.165 3573.72 604.874C3563.1 651.583 3557.79 699.885 3557.79 749.778C3557.79 797.549 3563.1 844.258 3573.72 889.905C3585.39 934.491 3603.44 974.831 3627.86 1010.92C3652.27 1047.02 3684.12 1076.21 3723.4 1098.5C3762.68 1119.73 3810.45 1130.35 3866.71 1130.35C3893.25 1130.35 3913.42 1129.29 3927.22 1127.17C3941.02 1125.04 3954.29 1120.8 3967.03 1114.43L3860.34 1017.29L3976.58 893.09L4105.56 1010.92ZM4142.19 1273.66C4066.82 1317.19 3974.99 1338.95 3866.71 1338.95C3779.66 1338.95 3701.11 1324.09 3631.04 1294.36C3562.04 1263.58 3503.65 1221.65 3455.88 1168.57C3408.11 1115.49 3371.49 1053.39 3346.01 982.262C3320.53 910.075 3307.79 832.581 3307.79 749.778C3307.79 664.853 3320.53 586.297 3346.01 514.11C3371.49 440.862 3408.11 377.168 3455.88 323.028C3503.65 268.888 3562.04 226.426 3631.04 195.64C3701.11 164.855 3779.66 149.462 3866.71 149.462C3954.82 149.462 4033.38 164.855 4102.38 195.64C4171.38 226.426 4229.77 268.888 4277.54 323.028C4325.31 377.168 4361.93 440.862 4387.41 514.11C4412.89 586.297 4425.63 664.853 4425.63 749.778C4425.63 832.581 4412.89 909.544 4387.41 980.669C4361.93 1051.79 4325.31 1114.43 4277.54 1168.57L4419.26 1297.55L4303.01 1418.57L4142.19 1273.66Z" fill="#040404"/>
<path d="M2887.54 176.531H3137.54V1313.47H2887.54V176.531Z" fill="#040404"/>
        </svg>