<svg width="125" height="43" viewBox="0 0 125 43" fill="none" xmlns="http://www.w3.org/2000/svg">
<path d="M23.8036 0H24.7964C27.9143 0.152929 30.9643 1.41234 33.2518 3.56054C37.0089 7.26862 40.8054 10.9371 44.5571 14.6524C47.0179 17.0525 48.4393 20.4853 48.4179 23.9361C48.4357 27.3347 47.0464 30.7171 44.65 33.11C43.7357 33.9952 42.8929 34.9793 41.7911 35.6396C38.9 37.4622 35.7964 38.9033 32.7071 40.3444C30.7857 41.2314 28.85 42.0896 26.9018 42.9136C26.8946 36.1056 26.8946 29.2958 26.9 22.4877C26.8571 21.7519 27.4054 21.124 28.0768 20.9081C30.2696 20.0913 32.425 19.1557 34.6357 18.3928C35.1036 18.6087 35.5322 18.9362 36.0536 19.0226C37.3732 19.332 38.8536 18.6879 39.5196 17.4969C40.1697 16.4282 40.0857 14.9744 39.3429 13.9741C38.5286 12.8226 36.9161 12.3513 35.6107 12.8622C34.4768 13.249 33.6929 14.3231 33.4964 15.4908C31.2964 16.3544 29.0911 17.2072 26.8893 18.0672C25.175 18.7365 23.2179 18.7365 21.5071 18.0564C19.3107 17.1964 17.1054 16.3598 14.9161 15.4782C14.7089 14.0695 13.5429 12.864 12.1286 12.6931C10.5482 12.4322 8.89643 13.5585 8.54822 15.1328C8.09286 16.8366 9.33036 18.7509 11.0571 19.028C12.0179 19.251 13.0089 18.9254 13.7893 18.3587C16.0214 19.2205 18.2464 20.0985 20.4786 20.9621C21.0982 21.1905 21.5679 21.8077 21.5161 22.4895C21.5161 29.294 21.5232 36.0984 21.5125 42.9029C18.8946 41.8108 16.3125 40.6323 13.7464 39.4233C11.3143 38.2592 8.8875 37.0718 6.60714 35.6252C5.55714 34.9739 4.725 34.0456 3.84107 33.1964C1.52143 30.8844 0.117857 27.6783 0 24.3895V23.4647C0.114286 20.0103 1.67857 16.6621 4.1875 14.3159C7.8 10.8112 11.3839 7.27582 14.9804 3.75306C17.325 1.45372 20.5357 0.104351 23.8036 0ZM23.5982 6.32946C21.7411 6.59034 20.2411 8.35352 20.3143 10.248C20.3232 11.7791 21.3446 13.2131 22.7482 13.769C23.9464 14.2656 25.3857 14.1018 26.4446 13.3516C27.8089 12.4376 28.45 10.5845 27.9375 9.01381C27.4089 7.20385 25.4375 6.00021 23.5982 6.32946Z" fill="#28A745"/>
<path d="M56.405 8.43445C57.155 8.43266 57.9067 8.43266 58.6585 8.43445C58.6585 13.0961 58.6567 17.7595 58.6585 22.4211C57.9067 22.4211 57.1568 22.4211 56.4068 22.4211C56.4014 17.7595 56.405 13.0961 56.405 8.43445Z" fill="black"/>
<path d="M60.38 8.41467C63.8765 8.40387 67.3729 8.41827 70.8711 8.40747C70.8693 9.06776 70.8711 9.72806 70.8675 10.3883C69.4854 10.3937 68.1015 10.3865 66.7193 10.3919C66.7497 14.4041 66.7247 18.4162 66.7568 22.4265C66.0068 22.4176 65.2586 22.4248 64.5104 22.4194C64.505 18.409 64.5104 14.4005 64.5086 10.3901C63.1318 10.3919 61.7533 10.3866 60.3765 10.3937C60.38 9.73345 60.3783 9.07496 60.38 8.41467Z" fill="black"/>
<path d="M77.5661 22.3995C77.5697 17.7433 77.5572 13.0889 77.5715 8.43262C79.2143 8.43622 80.859 8.43262 82.5018 8.43262C83.85 8.43082 85.2536 8.92559 86.1464 9.9763C87.0321 10.9802 87.3214 12.4178 87.0964 13.7204C86.8482 15.2029 85.7607 16.4893 84.3679 17.0128C82.9214 17.6048 81.334 17.3169 79.8197 17.3835C79.8197 19.0567 79.8197 20.7281 79.8197 22.3995C79.0679 22.3995 78.3161 22.3977 77.5661 22.3995ZM79.8411 10.4351C79.8411 12.0921 79.8411 13.7492 79.8411 15.408C81.0447 15.3198 82.3054 15.6005 83.4714 15.2065C84.8554 14.7009 85.2929 12.882 84.6768 11.6333C84.3036 10.8993 83.5089 10.3991 82.6857 10.4171C81.7375 10.4423 80.7893 10.4351 79.8411 10.4351Z" fill="black"/>
<path d="M86.9717 22.4176C88.6949 17.7595 90.3842 13.0907 92.1038 8.43088C92.861 8.43448 93.6181 8.43627 94.3753 8.42908C96.1003 13.0853 97.7878 17.7577 99.4895 22.423C98.7181 22.423 97.9449 22.4176 97.1735 22.4266C96.7485 21.2823 96.3502 20.1272 95.9324 18.9794C94.127 18.9812 92.3217 18.9812 90.5163 18.9812C90.1092 20.12 89.7056 21.2625 89.3235 22.4122C88.5395 22.4302 87.7556 22.423 86.9717 22.4176ZM91.2145 17.0471C92.5627 17.0453 93.911 17.0471 95.261 17.0471C94.4699 14.9708 93.827 12.846 93.2306 10.7068C92.636 12.846 91.9985 14.969 91.2145 17.0471Z" fill="black"/>
<path d="M101.293 8.43091C103.063 8.4399 104.833 8.42911 106.602 8.43451C107.833 8.4507 109.106 8.82672 110.017 9.69032C111.274 10.8616 111.606 12.8676 110.915 14.4257C110.418 15.5628 109.368 16.3724 108.213 16.752C109.317 18.6394 110.417 20.5303 111.513 22.423C110.724 22.4104 109.936 22.4428 109.149 22.4122C108.983 22.2953 108.916 22.0901 108.811 21.9282C107.89 20.3036 106.913 18.7113 106.004 17.0795C105.177 17.0597 104.35 17.0741 103.525 17.0687C103.527 18.8535 103.522 20.64 103.527 22.4248C102.783 22.4194 102.04 22.4248 101.295 22.4194C101.29 17.756 101.297 13.0925 101.293 8.43091ZM103.525 10.4352C103.527 11.9861 103.52 13.5387 103.529 15.0896C104.759 15.0446 106.006 15.1922 107.227 14.9996C108.625 14.7262 109.415 13.0404 108.84 11.7522C108.536 10.9209 107.634 10.4891 106.802 10.4406C105.709 10.4244 104.616 10.4424 103.525 10.4352Z" fill="black"/>
<path d="M113.681 8.43262C114.432 8.43442 115.182 8.43262 115.934 8.43442C115.938 13.0978 115.931 17.7595 115.94 22.4229C115.186 22.4211 114.432 22.4211 113.681 22.4211C113.682 17.7595 113.681 13.096 113.681 8.43262Z" fill="black"/>
<path d="M116.719 14.3789C118.51 12.3999 120.306 10.4262 122.078 8.43091C122.935 8.43631 123.79 8.43271 124.647 8.43451C122.719 10.6457 120.715 12.7903 118.786 15.0033C120.831 17.4717 122.847 19.9636 124.897 22.4248C124.003 22.4176 123.11 22.4248 122.217 22.4212C120.388 20.1633 118.544 17.9179 116.717 15.66C116.717 15.2335 116.717 14.8053 116.719 14.3789Z" fill="black"/>
<path d="M77.0517 28.7417C77.1838 28.7417 77.3177 28.7399 77.4535 28.7399C77.441 29.9561 77.4785 31.1705 77.4767 32.385C77.441 32.671 77.5856 32.9139 77.7302 33.1442C77.6427 33.1946 77.4713 33.2953 77.3838 33.3457C77.257 33.0956 77.0392 32.8618 77.0588 32.5613C77.0392 31.2893 77.0588 30.0155 77.0517 28.7417Z" fill="black"/>
<path d="M56.9397 28.9737C57.6718 28.6516 58.5093 28.7794 59.2682 28.9413C59.2254 29.0331 59.1414 29.2148 59.1004 29.3065C58.4557 29.2166 57.7611 29.0636 57.145 29.3479C56.654 29.5728 56.5933 30.4094 57.1129 30.6397C57.629 30.8286 58.2129 30.7459 58.7182 30.9798C59.5861 31.2946 59.5736 32.7376 58.7522 33.1082C57.9843 33.4374 57.1218 33.3115 56.3325 33.137C56.3772 33.0452 56.4665 32.8635 56.5111 32.7717C57.2486 32.8833 58.1397 33.092 58.77 32.5576C59.0022 32.1816 58.9486 31.5627 58.4986 31.3774C57.8379 31.0895 56.9522 31.3234 56.4522 30.7009C56.1075 30.1396 56.2736 29.2148 56.9397 28.9737Z" fill="black"/>
<path d="M88.3685 28.7183C88.4685 28.7183 88.6703 28.7183 88.7721 28.7183C88.7739 29.9435 88.7631 31.1705 88.7721 32.3958C88.7399 32.6656 88.8988 32.8833 89.0363 33.0956C88.956 33.1622 88.7953 33.2935 88.7149 33.3601C88.556 33.1082 88.3328 32.8599 88.3631 32.5379C88.3703 31.2659 88.3703 29.9921 88.3685 28.7183Z" fill="black"/>
<path d="M91.8984 29.2238C92.3663 28.657 93.2145 28.6984 93.8573 28.8657C94.777 29.1356 94.7073 30.7962 93.6984 30.888C94.1555 31.1165 94.4555 31.5393 94.793 31.9081C95.0752 31.5069 94.8716 30.6757 95.5163 30.6595C95.5234 31.2406 95.2752 31.7714 94.9913 32.2625C95.1948 32.5666 95.3966 32.8743 95.5913 33.1855C95.4663 33.1891 95.2198 33.1963 95.0966 33.1981C94.9698 32.9966 94.8448 32.7951 94.7234 32.5954C93.9805 33.3222 92.7823 33.5274 91.8573 33.0542C91.0859 32.4317 91.4038 30.9851 92.427 30.8232C91.5877 30.861 91.6413 29.7437 91.8984 29.2238ZM92.5716 29.2417C92.0198 29.4756 92.0788 30.503 92.6752 30.6667C93.2466 30.8754 94.1395 30.6163 94.0341 29.8589C94.0627 29.0978 93.093 29.0744 92.5716 29.2417ZM91.9609 31.6706C91.8877 32.0412 91.8663 32.5864 92.2573 32.7861C93.0216 33.0974 93.9252 32.8797 94.5002 32.2841C94.1377 31.7588 93.7341 31.0841 93.0234 31.0571C92.6127 31.0643 92.0377 31.183 91.9609 31.6706Z" fill="black"/>
<path d="M98.6617 29.0637C99.4135 28.6301 100.335 28.7884 101.147 28.9432C101.121 29.0367 101.065 29.2238 101.038 29.3174C100.321 29.213 99.476 29.0115 98.826 29.4433C98.3778 29.9435 98.4421 30.6866 98.4403 31.3127C98.4671 31.838 98.5153 32.5289 99.0688 32.77C99.6242 32.9985 100.244 32.8923 100.822 32.824C100.824 32.3022 100.824 31.7787 100.826 31.2569C100.444 31.2605 100.063 31.2605 99.6831 31.2605L99.6903 30.9007C100.217 30.9007 100.744 30.9007 101.272 30.9007C101.269 31.6563 101.269 32.4138 101.272 33.1694C100.455 33.3133 99.5581 33.4447 98.7742 33.0902C98.0814 32.7052 97.951 31.8308 97.9438 31.1094C97.9438 30.3843 97.9885 29.4991 98.6617 29.0637Z" fill="black"/>
<path d="M103.297 28.8892C104.035 28.7165 104.905 28.7039 105.547 29.1609C106.101 29.7114 106.122 30.5642 106.112 31.2983C106.085 31.9496 105.953 32.7268 105.333 33.0741C104.656 33.4141 103.839 33.3547 103.124 33.1712C102.196 32.7916 102.137 31.624 102.172 30.7622C102.176 30.0065 102.458 29.0619 103.297 28.8892ZM103.31 29.2724C102.612 29.5801 102.671 30.4869 102.653 31.1292C102.68 31.7175 102.692 32.5307 103.34 32.7844C103.906 32.9679 104.578 32.9805 105.121 32.7034C105.578 32.4048 105.61 31.8039 105.644 31.3109C105.649 30.719 105.669 30.0677 105.339 29.5531C104.826 29.017 103.96 29.0997 103.31 29.2724Z" fill="black"/>
<path d="M112.343 28.7219C112.443 28.7219 112.643 28.7201 112.743 28.7201C112.75 29.9381 112.734 31.158 112.747 32.3778C112.729 32.7268 113.097 33.0327 112.865 33.3781C112.552 33.2306 112.347 32.9409 112.348 32.5901C112.331 31.3001 112.348 30.0101 112.343 28.7219Z" fill="black"/>
<path d="M117.37 33.0362C117.377 31.5951 117.341 30.1521 117.384 28.711L117.764 28.6732C117.77 29.168 117.771 29.6646 117.753 30.1593C118.428 29.8715 119.487 29.7815 119.887 30.5426C120.136 31.2856 120.184 32.1852 119.773 32.8797C119.134 33.5022 118.134 33.2647 117.37 33.0362ZM117.78 30.5695C117.759 31.3072 117.768 32.0467 117.768 32.7843C118.239 32.8581 118.746 32.9696 119.212 32.7987C119.619 32.5828 119.611 32.0629 119.623 31.6634C119.607 31.2424 119.641 30.7117 119.236 30.4526C118.764 30.2619 118.225 30.3518 117.78 30.5695Z" fill="black"/>
<path d="M124.285 28.7651C124.39 28.7651 124.603 28.7633 124.708 28.7615C124.712 29.9723 124.703 31.1831 124.71 32.3922C124.687 32.6549 124.853 32.869 124.958 33.0939C124.88 33.1568 124.721 33.2828 124.642 33.3457C124.471 33.0543 124.26 32.7538 124.287 32.3976C124.278 31.1867 124.289 29.9759 124.285 28.7651Z" fill="black"/>
<path d="M59.7905 28.9C60.9602 28.8982 62.1298 28.8982 63.2995 28.8982L63.3031 29.258C62.8031 29.258 62.3048 29.258 61.8066 29.2598C61.8048 30.5732 61.8031 31.8866 61.8084 33.2018C61.6441 33.209 61.4798 33.2162 61.3173 33.2252C61.312 31.9028 61.3173 30.5822 61.3138 29.2598C60.8102 29.258 60.3066 29.258 59.8048 29.2598C59.8012 29.1699 59.7941 28.99 59.7905 28.9Z" fill="black"/>
<path d="M62.9585 33.2467C63.446 31.775 63.996 30.3249 64.596 28.8964C64.846 28.8982 65.096 28.8982 65.3478 28.9C65.8639 30.3501 66.3692 31.8074 66.9924 33.2162C66.8656 33.2162 66.6121 33.218 66.4853 33.218C66.3085 32.779 66.1317 32.34 65.9746 31.8938C65.2639 31.8866 64.5531 31.8902 63.8424 31.8902C63.5639 32.349 63.6889 33.3295 62.9585 33.2467ZM63.996 31.507C64.6121 31.5087 65.2264 31.5052 65.8406 31.5123C65.5424 30.7297 65.3299 29.9165 65.0121 29.141C64.5317 29.8571 64.3424 30.7225 63.996 31.507Z" fill="black"/>
<path d="M67.6768 28.9269C68.5036 28.9233 69.3411 28.8279 70.1625 28.9485C70.9089 29.2327 71.0678 30.2457 70.6607 30.8718C70.4375 31.1974 70.0214 31.255 69.6696 31.3324C70.3071 31.8343 70.6893 32.5702 71.1286 33.2377C70.9839 33.2395 70.6946 33.2395 70.55 33.2413C70.1982 32.6637 69.8554 32.0664 69.3786 31.5824C69.0375 31.2568 68.5411 31.4061 68.1232 31.3683C68.1214 31.9891 68.1215 32.6116 68.125 33.2341C68.0143 33.2377 67.7911 33.2431 67.6804 33.2449C67.6715 31.8055 67.6786 30.3662 67.6768 28.9269ZM68.1465 29.2597C68.1447 29.8211 68.1447 30.3824 68.1447 30.9437C68.8161 30.8304 69.7357 31.2352 70.225 30.6217C70.4214 30.1791 70.3393 29.4127 69.7804 29.2993C69.2375 29.2417 68.6893 29.2597 68.1465 29.2597Z" fill="black"/>
<path d="M71.2832 28.8964C72.4546 28.9018 73.626 28.8964 74.7957 28.9C74.7975 28.9899 74.7993 29.1698 74.801 29.2598C74.2939 29.258 73.7868 29.258 73.2796 29.2562C73.2814 30.5786 73.2778 31.8992 73.2814 33.2215C73.1243 33.2162 72.9689 33.2126 72.8136 33.2108C72.8082 31.8938 72.8136 30.5786 72.81 29.2616C72.3082 29.258 71.8064 29.258 71.3064 29.258L71.2832 28.8964Z" fill="black"/>
<path d="M78.9942 30.1414C79.5674 29.9165 80.3102 29.9057 80.8263 30.2853C81.2335 30.6883 81.2352 31.3216 81.2227 31.8596C81.2102 32.3921 81.0192 33.0596 80.4442 33.2198C79.912 33.3565 79.2817 33.3745 78.8084 33.056C78.3638 32.6692 78.3566 32.0179 78.3656 31.4728C78.3709 30.9726 78.4852 30.3645 78.9942 30.1414ZM79.1424 30.4724C78.7352 30.7963 78.8281 31.4026 78.8138 31.865C78.8084 32.277 78.9495 32.8491 79.4388 32.8977C79.8674 32.9661 80.4513 32.9661 80.6602 32.4965C80.8209 31.9999 80.8102 31.453 80.7156 30.9438C80.5977 30.2278 79.6549 30.2763 79.1424 30.4724Z" fill="black"/>
<path d="M82.2474 30.4994C82.7385 29.8031 83.7046 29.9722 84.4206 30.1036C84.3921 30.1971 84.3367 30.3861 84.3099 30.4796C83.7474 30.4058 82.8849 30.1612 82.576 30.8214C82.3689 31.4368 82.4296 32.1222 82.6724 32.7178C83.1921 32.984 83.7688 32.8833 84.3224 32.8275L84.4474 33.1496C83.6974 33.3349 82.6778 33.4662 82.2064 32.6926C81.9367 32.0035 81.9082 31.1687 82.2474 30.4994Z" fill="black"/>
<path d="M85.0805 30.1144C85.793 29.9975 86.7912 29.7384 87.2805 30.4509C87.568 31.2839 87.3769 32.1997 87.4287 33.0651C86.8233 33.2576 86.1769 33.3637 85.5466 33.2414C84.6358 33.0813 84.6483 31.5178 85.5037 31.2803C86.0108 31.1112 86.5483 31.2407 87.0662 31.2695C86.9608 31.0086 87.0162 30.6164 86.7305 30.4635C86.2305 30.2602 85.6805 30.3969 85.1715 30.4869L85.0805 30.1144ZM85.4448 31.7283C85.2626 32.0431 85.268 32.5217 85.5001 32.8168C85.993 33.0057 86.5287 32.9031 87.0287 32.7952C87.0287 32.4012 87.0287 32.009 87.0305 31.6167C86.5108 31.6059 85.9001 31.3919 85.4448 31.7283Z" fill="black"/>
<path d="M109.362 30.0928C110.03 29.8589 110.75 30.01 111.405 30.2133C111.395 31.1795 111.425 32.1456 111.386 33.11C111.371 33.5454 111.243 34.0618 110.821 34.2687C110.17 34.5943 109.391 34.4864 108.734 34.2399C109.032 33.6497 109.68 34.2399 110.162 34.0618C110.729 34.06 110.989 33.5292 111.045 33.038C110.509 33.3385 109.845 33.3763 109.282 33.1316C108.786 32.8347 108.696 32.1906 108.7 31.6617C108.687 31.0895 108.761 30.3501 109.362 30.0928ZM109.516 30.4616C109.168 30.6649 109.162 31.1237 109.146 31.4782C109.152 31.9387 109.098 32.5343 109.546 32.8167C110.023 32.9733 110.605 32.9535 110.991 32.5936C110.971 31.8866 110.982 31.1813 110.982 30.4742C110.5 30.3879 109.987 30.2763 109.516 30.4616Z" fill="black"/>
<path d="M114.185 30.172C114.902 29.832 116.163 29.85 116.401 30.7909C116.542 31.4296 116.568 32.1493 116.283 32.7538C115.927 33.4015 115.067 33.3367 114.452 33.2198C113.843 33.0812 113.638 32.3922 113.64 31.838C113.635 31.2569 113.622 30.5138 114.185 30.172ZM114.468 30.4401C113.933 30.8251 114.093 31.6455 114.131 32.2195C114.179 33.1712 115.917 33.1784 116.006 32.232C116.047 31.6383 116.199 30.8305 115.642 30.4311C115.267 30.3069 114.838 30.3033 114.468 30.4401Z" fill="black"/>
<path d="M121.031 30.0928C121.75 29.9758 122.822 29.7095 123.259 30.4976C123.473 31.3288 123.329 32.2068 123.366 33.0578C122.713 33.2341 122.011 33.3906 121.348 33.1801C120.675 32.9498 120.684 31.9531 121.068 31.4727C121.611 31.0175 122.368 31.2208 123.007 31.2604C122.897 30.9977 122.95 30.5731 122.643 30.4454C122.139 30.2529 121.586 30.3986 121.075 30.4778C121.064 30.3806 121.041 30.1899 121.031 30.0928ZM121.366 31.73C121.223 32.0538 121.17 32.59 121.504 32.8131C121.968 32.9894 122.473 32.8743 122.945 32.7807C122.945 32.3885 122.945 31.9981 122.943 31.6059C122.431 31.5807 121.8 31.3612 121.366 31.73Z" fill="black"/>
</svg>
