<svg width="118" height="54" viewBox="0 0 118 54" fill="none" xmlns="http://www.w3.org/2000/svg">
<g clip-path="url(#clip0_5056_64878)">
<path d="M24.7694 0H0V54.0572H24.7694V0Z" fill="#F1B747"/>
<path d="M46.1708 26.9143C46.1708 27.5619 46.114 28.2286 46.0194 28.8953H30.0111C30.5031 31.3905 32.0736 32.6667 34.42 32.6667C36.1608 32.6667 37.5989 31.9048 38.318 30.6286H45.7166C44.2029 35.581 39.8318 38.6858 34.42 38.6858C27.6836 38.6858 22.707 33.7334 22.707 27.1048C22.707 20.4572 27.6458 15.5619 34.42 15.5619C41.3456 15.5429 46.1708 20.5334 46.1708 26.9143ZM30.1246 24.7429H38.8478C38.2045 22.5715 36.6339 21.4096 34.4011 21.4096C32.225 21.4096 30.7301 22.5905 30.1246 24.7429Z" fill="black"/>
<path d="M70.8645 24.7239V37.962H63.428V25.7524C63.428 23.2191 62.4818 21.981 60.6085 21.981C58.3 21.981 56.9565 23.6 56.9565 26.381V37.981H49.52V16.2667H54.7237L55.7455 18.5143C57.3539 16.7048 59.7381 15.6381 62.5386 15.6381C67.572 15.6191 70.8645 19.2 70.8645 24.7239Z" fill="black"/>
<path d="M89.6922 31.4095V37.9619H84.5832C79.8147 37.9619 76.9196 35.0286 76.9196 30.2096V22.0191H72.9648V20.2667L82.6153 9.90479H84.148V16.2476H89.5598V22H84.3372V28.9143C84.3372 30.4762 85.2644 31.4095 86.8349 31.4095H89.6922Z" fill="black"/>
<path d="M115.899 16.2286V37.9428H110.166L109.523 36.4C107.763 37.8476 105.53 38.6666 103.013 38.6666C96.4094 38.6666 91.6978 33.8285 91.6978 27.0857C91.6978 20.3619 96.4094 15.5809 103.013 15.5809C105.549 15.5809 107.82 16.4381 109.598 17.9047L110.355 16.2286H115.899ZM108.841 27.1047C108.841 24.2857 106.798 22.1714 104.016 22.1714C101.216 22.1714 99.191 24.2857 99.191 27.1047C99.191 29.9428 101.235 32.0571 104.016 32.0571C106.798 32.0571 108.841 29.9428 108.841 27.1047Z" fill="black"/>
<path d="M20.4738 31.4095V37.9618H15.3647C10.5963 37.9618 7.70117 35.0285 7.70117 30.2095V22.019L7.90932 9.23804H14.9484L15.1377 22.019V28.9333C15.1377 30.4952 16.0649 31.4285 17.6354 31.4285H20.4738V31.4095Z" fill="black"/>
<path d="M115.9 6.91431H101.538V12.2286H104.281L108.69 14.8762L110.053 12.2286H115.9V6.91431Z" fill="black"/>
</g>
<defs>
<clipPath id="clip0_5056_64878">
<rect width="118" height="54" fill="white"/>
</clipPath>
</defs>
</svg>
