<svg width="117" height="100" viewBox="0 0 117 100" fill="none" xmlns="http://www.w3.org/2000/svg">
<path d="M59.708 83.3987C58.8414 83.5454 57.9637 83.6132 57.0857 83.6018C55.4384 83.6018 53.6724 82.4917 53.6724 79.3921V77.5779C53.6724 74.291 55.524 73.3564 57.2024 73.3564C58.0414 73.3488 58.8794 73.4122 59.708 73.5457C59.825 73.5596 59.9327 73.6125 59.9327 73.7488V74.425C59.9327 74.5198 59.881 74.5613 59.7619 74.5613H59.7105C58.9329 74.4942 58.3261 74.4665 57.2048 74.4665C55.9799 74.4665 54.8724 75.143 54.8724 77.5779V79.3921C54.8724 81.6263 55.8608 82.5056 57.0878 82.5056C57.8902 82.5056 58.4362 82.4526 58.7462 82.4246V78.554C58.7434 78.5201 58.7475 78.4855 58.7582 78.453C58.7689 78.4208 58.7858 78.3907 58.8083 78.3651C58.8304 78.3398 58.8576 78.3191 58.888 78.3049C58.9184 78.2904 58.9512 78.2827 58.9846 78.2817H59.6967C59.7646 78.2855 59.8285 78.3156 59.8747 78.3665C59.9213 78.4173 59.9469 78.4845 59.9462 78.554V83.1011C59.9483 83.172 59.9251 83.2409 59.8816 83.2959C59.8378 83.3506 59.776 83.3872 59.708 83.3987Z" fill="#B0ACAB"/>
<path d="M64.8582 77.0101C64.2449 76.9852 63.6306 77.0309 63.0269 77.1464V83.2371C63.0301 83.3032 63.0087 83.3679 62.9669 83.4181C62.9251 83.4686 62.8661 83.5004 62.8023 83.5073H62.1168C62.0502 83.5035 61.9881 83.4734 61.9436 83.4226C61.8987 83.372 61.8756 83.3056 61.8787 83.2371V76.6592C61.8825 76.5914 61.9063 76.526 61.9467 76.4724C61.9871 76.4184 62.0426 76.3783 62.1054 76.3568C62.8561 76.0177 63.7662 75.9783 64.8582 75.9783C65.0311 75.9783 65.1367 75.9921 65.1367 76.1814V76.8025C65.1367 76.9433 65.1098 77.0101 64.8582 77.0101Z" fill="#B0ACAB"/>
<path d="M69.2313 83.6018C67.2944 83.6018 66.3101 82.2886 66.3101 80.299V79.2696C66.3101 77.28 67.2989 75.9692 69.2313 75.9692C71.164 75.9692 72.1528 77.28 72.1528 79.2696V80.299C72.1528 82.2886 71.1571 83.6018 69.2313 83.6018ZM71.0111 79.2696C71.0111 77.8848 70.4696 77.0101 69.2313 77.0101C67.9933 77.0101 67.4652 77.8779 67.4652 79.2696V80.299C67.4652 81.6838 67.9933 82.5609 69.2313 82.5609C70.4696 82.5609 71.0111 81.6931 71.0111 80.299V79.2696Z" fill="#B0ACAB"/>
<path d="M76.5478 83.6018H76.4218C75.5231 83.6018 73.7074 83.0873 73.7074 80.4215V76.334C73.7046 76.2994 73.7088 76.2648 73.7198 76.2319C73.7308 76.1994 73.7481 76.1693 73.7709 76.144C73.7937 76.1187 73.8216 76.0983 73.8523 76.0845C73.883 76.0706 73.9165 76.0637 73.95 76.0637H74.6354C74.6689 76.0644 74.7017 76.0717 74.7317 76.0859C74.7621 76.1001 74.7894 76.1205 74.8118 76.1457C74.8339 76.171 74.8511 76.2007 74.8618 76.2333C74.8725 76.2654 74.8763 76.2997 74.8736 76.334V80.4215C74.8736 82.0371 75.548 82.561 76.4287 82.561H76.5478C77.4286 82.561 78.103 82.0464 78.103 80.4215V76.334C78.0999 76.3 78.104 76.2658 78.1147 76.2336C78.1251 76.2014 78.142 76.1717 78.1641 76.1464C78.1862 76.1212 78.2131 76.1007 78.2431 76.0866C78.2731 76.0724 78.3056 76.0648 78.3387 76.0637H79.0241C79.0573 76.0644 79.0901 76.0717 79.1204 76.0859C79.1508 76.1001 79.1781 76.1205 79.2005 76.1457C79.2226 76.171 79.2399 76.2007 79.2506 76.2333C79.2609 76.2654 79.265 76.2997 79.2623 76.334V80.4215C79.2623 83.0873 77.4421 83.6018 76.5478 83.6018Z" fill="#B0ACAB"/>
<path d="M83.7544 83.6017C83.2374 83.5948 82.7218 83.5453 82.2127 83.454V85.9031C82.2127 85.9367 82.2061 85.9699 82.1937 86.001C82.1813 86.0322 82.1627 86.0602 82.1395 86.0841C82.1164 86.108 82.0891 86.1267 82.0588 86.1398C82.0284 86.1526 81.996 86.1592 81.9632 86.1592H81.2891C81.257 86.1588 81.2253 86.1519 81.1956 86.1388C81.1663 86.1256 81.1397 86.1066 81.1173 86.0827C81.0952 86.0588 81.0779 86.0308 81.0665 85.9997C81.0551 85.9689 81.0496 85.936 81.051 85.9031V76.5876C81.051 76.4121 81.0914 76.3315 81.3274 76.2786C82.1216 76.0806 82.9351 75.9761 83.752 75.9668C85.7161 75.9668 86.6259 77.2779 86.6259 79.309V80.2806C86.6283 82.4107 85.6778 83.6017 83.7544 83.6017ZM85.4666 79.3111C85.4666 77.8893 85.0597 76.9709 83.7544 76.9709C83.2378 76.9741 82.7225 77.0187 82.2127 77.1049V82.464C82.7225 82.5498 83.2378 82.5955 83.7544 82.6C85.0462 82.6 85.4666 81.7346 85.4666 80.2921V79.3111Z" fill="#B0ACAB"/>
<path d="M36.7714 83.491C36.1781 83.5858 34.5242 83.7059 33.9512 83.7059C31.4074 83.7059 29.6816 83.0502 29.6816 79.7682V73.7858C29.6822 73.7512 29.6895 73.717 29.7031 73.6851C29.7167 73.6533 29.7363 73.6249 29.7608 73.6011C29.7852 73.5772 29.8141 73.5585 29.8456 73.5464C29.8772 73.5339 29.9108 73.5284 29.9446 73.5294H32.0928C32.1266 73.528 32.1604 73.5336 32.1921 73.5457C32.2238 73.5578 32.2527 73.5765 32.2773 73.6004C32.3018 73.6242 32.3214 73.653 32.3349 73.6848C32.3484 73.7166 32.3555 73.7509 32.3557 73.7858V79.7682C32.3557 80.9869 32.7512 81.3838 33.6883 81.3838C34.1112 81.3824 34.5339 81.3547 34.9535 81.3007V73.7858C34.9535 73.7509 34.9608 73.7166 34.9742 73.6848C34.9877 73.653 35.0074 73.6242 35.0319 73.6004C35.0564 73.5765 35.0854 73.5578 35.1171 73.5457C35.1489 73.5336 35.1824 73.528 35.2162 73.5294H37.3512C37.4206 73.5263 37.4889 73.5516 37.5403 73.5993C37.5921 73.6474 37.6235 73.7142 37.6276 73.7858V82.4478C37.6276 83.2049 37.4029 83.3966 36.7714 83.491Z" fill="#11100F"/>
<path d="M41.7643 83.5858H39.6027C39.5334 83.5837 39.4678 83.5543 39.4195 83.5034C39.3712 83.4526 39.3442 83.3844 39.3442 83.3135V73.7858C39.3449 73.7515 39.3518 73.7176 39.3653 73.6861C39.3788 73.6546 39.3977 73.6263 39.4219 73.6027C39.4457 73.5789 39.474 73.5602 39.5051 73.5477C39.5361 73.5349 39.5693 73.529 39.6027 73.5294H41.7643C41.7981 73.528 41.832 73.5335 41.8637 73.5456C41.8955 73.5578 41.9245 73.5764 41.949 73.6003C41.9735 73.6242 41.9931 73.6529 42.0066 73.6847C42.0201 73.7166 42.027 73.7508 42.0273 73.7858V83.3135C42.0276 83.3491 42.0211 83.3844 42.008 83.4173C41.9949 83.4505 41.9755 83.4806 41.951 83.5058C41.9265 83.5311 41.8975 83.5512 41.8654 83.565C41.8333 83.5785 41.7992 83.5858 41.7643 83.5858Z" fill="#11100F"/>
<path d="M49.4071 83.4633C48.8076 83.6391 48.1856 83.7208 47.562 83.7059C45.1374 83.7059 43.5039 82.3533 43.5039 79.2536V77.8685C43.5039 74.7599 45.1374 73.4073 47.562 73.4073C48.1853 73.3934 48.8072 73.4751 49.4071 73.6495C49.6183 73.7187 49.697 73.7581 49.697 73.9474V75.6806C49.697 75.8561 49.6183 75.9367 49.4723 75.9367H49.4319C48.8193 75.8633 48.2036 75.8232 47.5868 75.817C46.8745 75.817 46.2387 76.1398 46.2387 77.8595V79.2443C46.2387 80.9498 46.8724 81.2893 47.5868 81.2893C48.2036 81.282 48.8193 81.2412 49.4319 81.1668H49.4564C49.6138 81.1668 49.6811 81.2478 49.6811 81.4232V83.1657C49.697 83.3412 49.6183 83.3965 49.4071 83.4633Z" fill="#11100F"/>
<path d="M39.6257 21.097C24.6439 17.4898 14.1741 26.0618 7.73407 16.4232C7.71478 16.3844 7.69549 16.365 7.67623 16.3262C7.50266 16.0547 7.73407 15.6669 8.04255 15.7444C21.3082 18.925 23.4677 16.9468 29.0401 17.6256C34.1883 18.2462 39.6257 21.097 39.6257 21.097Z" fill="#11100F"/>
<path d="M42.2674 23.5212C29.0787 21.5624 19.7272 31.4725 12.6702 23.8509C12.6509 23.8315 12.6316 23.7927 12.593 23.7733C12.4002 23.56 12.5352 23.1721 12.8244 23.1915C24.8753 24.0836 27.7097 21.9503 32.6651 21.737C37.2926 21.5431 42.2674 23.5212 42.2674 23.5212Z" fill="#11100F"/>
<path d="M44.7157 26.6436C33.2046 25.0727 28.2685 35.4674 18.9363 29.1065C18.917 29.0871 18.8977 29.0677 18.8592 29.029C18.6663 28.8544 18.7242 28.3502 18.9941 28.3502C29.194 28.3696 31.8548 25.9842 36.1547 25.4605C41.9778 24.7624 44.7157 26.6436 44.7157 26.6436Z" fill="#11100F"/>
<path d="M49.9027 30.0762C43.8871 30.7162 44.8317 35.5647 38.2376 34.4786C37.3696 34.3428 37.5625 33.7222 37.9484 33.6059C43.4819 32.0156 43.4819 30.949 45.4681 30.1538C47.3577 29.4363 49.9027 30.0762 49.9027 30.0762Z" fill="#11100F"/>
<path d="M47.1838 28.583C38.5071 28.7575 36.2897 35.0215 28.982 32.9853C27.8636 32.675 28.2492 31.8217 28.847 31.7441C37.2153 30.406 37.6202 29.1648 40.7243 28.4278C43.6358 27.7296 47.1838 28.583 47.1838 28.583Z" fill="#11100F"/>
<path d="M42.2285 21.0778C42.1706 21.1748 42.0356 21.1942 41.9393 21.1554C40.146 20.1275 38.4687 18.9251 36.5404 17.6064C34.7281 16.3846 30.8331 14.7167 22.7349 15.1046C18.8786 15.2985 13.017 16.0937 6.96263 11.9241C5.49723 10.935 4.01254 9.24775 3.24129 7.67689C3.16416 7.54114 3.1256 7.36661 3.10632 7.19204C3.08704 7.01751 3.27985 6.88177 3.45339 6.93993C18.4351 12.9907 22.7156 10.6247 32.1443 12.8162C36.0199 13.7276 40.8211 19.3906 42.2092 20.8063C42.2862 20.8645 42.2862 20.9808 42.2285 21.0778Z" fill="#11100F"/>
<path d="M55.2626 54.2405C55.089 54.7834 55.1276 55.4235 54.7804 55.8889C54.3563 56.5097 53.315 56.5678 52.8138 56.0052C52.486 55.7146 52.486 55.2492 52.3704 54.8806C51.6183 51.5644 50.8856 48.2481 50.1529 44.9121C50.0759 44.6796 50.1529 44.5246 50.3845 44.4274C50.7506 44.3305 50.7893 44.7377 50.9049 44.9706C51.7339 47.2395 52.5053 49.528 53.3536 51.7969C53.6235 52.5727 54.5299 52.3204 55.1276 52.5146C55.7641 52.9218 55.3782 53.6782 55.2626 54.2405Z" fill="#11100F"/>
<path d="M56.2459 45.0868C56.3232 45.3 56.2072 45.5522 55.976 45.591C55.8411 45.6104 55.7254 45.591 55.6868 45.3972C55.1277 44.2723 54.6455 43.0893 54.0671 41.9643C53.315 41.3246 52.5247 40.665 52.0619 39.7536C51.2328 38.2796 51.3098 36.3598 52.2355 34.9439C52.3124 34.847 52.3704 34.7308 52.4474 34.6336C52.5823 34.4398 52.8715 34.4786 52.9488 34.7114C53.0068 34.8858 53.0451 35.0602 53.1224 35.2156C54.1637 38.4931 55.1663 41.8093 56.2459 45.0868Z" fill="#11100F"/>
<path d="M56.4005 29.475C56.3618 30.3477 56.0343 31.1622 55.8221 31.9961C55.8027 32.0543 55.7834 32.0931 55.7258 32.1125C55.5908 32.1707 55.4559 32.0737 55.4559 31.938C55.4752 30.7938 55.88 29.6689 55.5908 28.5441C55.1666 27.012 54.1254 25.6739 54.0481 24.0448C54.0098 23.1915 54.2217 22.3576 54.3953 21.5237C53.7782 20.2243 53.489 18.731 53.8168 17.3153C53.8748 17.1407 53.8938 17.1407 53.9904 17.2765C54.5882 18.1492 55.3786 19.0219 55.3786 20.1661C55.3016 21.7952 54.4146 23.4242 55.0124 25.0533C55.4942 26.5078 56.5354 27.8653 56.4005 29.475Z" fill="#11100F"/>
<path d="M61.4907 23.851C61.452 25.9842 59.6011 27.6909 59.8134 29.863C59.8134 30.6969 60.0253 31.5502 59.929 32.3841C59.794 33.1211 58.9647 33.2374 58.3672 33.412C58.02 33.5671 57.6345 33.1598 57.7308 32.8107C57.7308 30.2896 57.7308 27.7491 57.7308 25.2279C57.7695 24.1806 58.02 23.0752 58.7334 22.2801C59.1769 21.7565 59.6398 21.2328 60.1216 20.7092C60.2182 20.5929 60.2758 20.4571 60.2565 20.3213C60.2182 19.8559 60.1216 19.4486 60.3338 18.9056C60.6617 18.2268 61.0859 17.8196 61.5294 17.3735C61.6063 17.296 61.7219 17.3348 61.7413 17.4317C62.0498 18.8086 61.7413 20.302 61.1052 21.5431C61.2595 22.2801 61.4907 23.0558 61.4907 23.851Z" fill="#11100F"/>
<path d="M85.843 16.0548C83.2207 16.7917 82.0058 17.6839 80.9649 18.5178C80.9649 18.5178 83.3363 17.6839 86.7493 17.3154C96.4286 16.2487 96.9877 19.8753 107.824 15.6669C108.19 15.6088 108.287 15.8997 108.19 16.0548C106.744 18.576 105.144 21.3686 99.0892 21.6207C92.4951 21.8922 89.0631 19.2353 82.8735 20.0305C78.921 20.5347 76.8771 21.7759 75.7396 22.5322C89.2363 19.9335 88.1181 25.9067 101.345 22.7262C101.5 22.6874 101.673 22.6486 101.827 22.668C102.174 22.7068 102.309 23.1334 102.097 23.3661C102.001 23.4825 101.866 23.5989 101.769 23.7152C100.034 25.5964 98.2025 27.6521 92.0323 27.1867C84.7824 26.6436 84.3196 22.125 70.4756 25.577C83.8954 25.5188 83.6642 29.9405 93.7676 28.6218C94.1148 28.583 94.3267 29.0097 94.0568 29.2424C93.9025 29.3781 93.7289 29.4945 93.594 29.6108C92.0709 30.8133 89.8534 32.2871 85.6887 31.4339C77.0121 29.6108 78.111 26.0037 66.947 27.9818C75.6429 28.2145 75.0452 31.6084 83.9727 32.4423C83.9727 32.4423 83.9727 32.4423 83.992 32.4423C84.4739 32.5005 84.6088 33.1405 84.204 33.412C83.8954 33.6253 83.5486 33.7805 83.2207 33.9162C76.7035 36.4568 73.6764 28.2339 65.6745 30.0763C71.4013 30.5805 70.9384 32.5199 76.1058 33.9356C76.6649 34.0907 76.6072 34.8471 75.9901 34.9052C69.8585 35.526 70.3983 31.3757 66.6384 31.2205C65.6358 31.1817 64.7105 31.7248 64.209 32.6169C62.7243 35.2156 63.3221 37.6786 63.2258 39.0167C63.573 40.4132 64.0934 41.7706 64.1128 43.2443C64.1321 44.2724 64.0354 45.3391 63.7079 46.3281C63.0908 48.3838 62.4737 50.4395 61.8376 52.5146C61.7027 52.9412 61.7217 53.4066 61.8759 53.8139C62.1075 54.4347 62.3388 55.0357 62.4351 55.6952C62.6666 56.8004 62.5124 57.9447 62.1269 59.0115C61.3168 61.009 60.5072 63.0066 59.6971 65.0232C59.5428 65.3917 59.4272 65.7796 59.1573 66.09C58.7525 66.1675 58.7912 65.644 58.8295 65.3917C59.6202 57.9253 60.3722 50.4589 61.1432 42.9924L61.7603 41.208C60.5458 42.2554 60.0057 43.7101 59.2153 45.0094C59.1187 45.3194 58.6562 45.3779 58.5596 45.0288C58.6369 43.7295 58.8101 42.4298 58.8488 41.1305C58.9644 39.8118 58.9454 38.4737 59.3886 37.2132C59.8901 35.9333 60.854 34.9052 61.6061 33.7998C62.8402 32.2096 63.7655 30.406 64.402 28.5054C64.7875 27.3418 65.5975 26.314 66.6384 25.674C70.2444 23.3855 72.3459 21.4074 75.7586 18.8087C78.9017 16.4233 81.3311 14.5615 82.7192 13.9991C89.0631 11.381 101.808 14.193 112.721 7.0562C112.991 6.90108 113.338 7.21136 113.126 7.65742C112.104 10.2561 110.89 11.924 107.997 13.3591C99.6676 17.4899 90.104 14.8524 85.843 16.0548Z" fill="#11100F"/>
<path d="M60.5458 20.5347C60.5458 20.5347 59.8324 19.2741 58.0971 19.119C56.7859 19.0026 56.1885 19.4487 56.1885 19.4487C56.1885 19.4487 57.7695 18.9832 59.0034 20.0886C60.2376 21.1941 59.5625 22.1444 59.5625 22.1444C59.5625 22.1444 60.9123 21.3492 60.5458 20.5347Z" fill="#11100F"/>
<path d="M60.4687 20.3601C60.4687 20.3601 59.5624 19.3904 57.7114 19.3129C57.7114 19.3129 58.8103 19.5844 58.9456 20.1856C59.1769 21.3298 58.1742 22.8619 57.9813 23.5988C57.827 24.2582 60.4687 20.3601 60.4687 20.3601Z" fill="#11100F"/>
</svg>
