<svg xmlns="http://www.w3.org/2000/svg" xmlns:xlink="http://www.w3.org/1999/xlink" width="500" zoomAndPan="magnify" viewBox="0 0 375 374.999991" height="500" preserveAspectRatio="xMidYMid meet" version="1.2"><defs/><g id="297ce8c5ab"><g style="fill:#000000;fill-opacity:1;"><g transform="translate(58.571789, 222.723804)"><path style="stroke:none" d="M 9.15625 -0.359375 L 8.421875 0 L 0 -0.046875 L 0 -14.3125 L 45.578125 -74.25 L 46.5625 -74.765625 L 55.359375 -74.765625 L 55.359375 -60.9375 Z M 14.5625 0 L 14.671875 -0.3125 L 14.671875 -0.578125 L 14.5625 -0.578125 L 24.09375 -14.046875 L 55.046875 -14.046875 L 55.578125 -13.46875 L 55.578125 -0.515625 L 55.046875 0 Z M 1.671875 -60.875 L 1.09375 -61.390625 L 1.09375 -74.09375 L 1.671875 -74.609375 L 41.046875 -74.609375 L 30.859375 -60.875 Z M 1.671875 -60.875 "/></g></g><g style="fill:#000000;fill-opacity:1;"><g transform="translate(118.876296, 222.723804)"><path style="stroke:none" d="M 28.359375 -57.03125 C 31.304688 -57.09375 33.613281 -56.96875 35.28125 -56.65625 C 46.519531 -53.851562 52.296875 -47.664062 52.609375 -38.09375 L 52.609375 -0.78125 L 51.609375 0.109375 L 36.375 0.109375 L 35.640625 -0.625 L 35.640625 -36.734375 C 35.191406 -40.234375 32.765625 -42.175781 28.359375 -42.5625 Z M 32.421875 -25.234375 L 31.328125 -24.1875 C 29.453125 -24.394531 27.523438 -24.363281 25.546875 -24.09375 C 22.046875 -23.75 19.203125 -22.90625 17.015625 -21.5625 C 14.828125 -20.226562 13.734375 -18.332031 13.734375 -15.875 C 13.734375 -14.101562 14.914062 -12.734375 17.28125 -11.765625 C 19.394531 -10.859375 21.847656 -10.378906 24.640625 -10.328125 C 27.429688 -10.273438 29.726562 -10.507812 31.53125 -11.03125 L 32.421875 -10.203125 L 32.421875 -0.15625 C 31.234375 0.226562 28.210938 0.472656 23.359375 0.578125 C 19.929688 0.535156 16.816406 0.226562 14.015625 -0.34375 C 11.222656 -0.914062 8.597656 -2.03125 6.140625 -3.6875 C 5.097656 -4.351562 4.238281 -5.09375 3.5625 -5.90625 C 2.882812 -6.71875 2.351562 -7.46875 1.96875 -8.15625 C 1.59375 -8.851562 1.300781 -9.515625 1.09375 -10.140625 C 0.570312 -11.703125 0.3125 -13.4375 0.3125 -15.34375 C 0.3125 -21.65625 2.453125 -26.457031 6.734375 -29.75 C 11.023438 -33.050781 16.773438 -34.875 23.984375 -35.21875 C 26.929688 -35.53125 29.460938 -35.566406 31.578125 -35.328125 L 32.421875 -34.546875 Z M 25.390625 -42.453125 C 20.878906 -42.003906 18.539062 -40.617188 18.375 -38.296875 L 17.0625 -37.671875 L 4.46875 -37.71875 L 3.53125 -38.65625 C 3.5 -47.226562 8.269531 -53.070312 17.84375 -56.1875 C 19.300781 -56.75 21.816406 -56.992188 25.390625 -56.921875 Z M 25.390625 -42.453125 "/></g></g><g style="fill:#000000;fill-opacity:1;"><g transform="translate(177.047512, 222.723804)"><path style="stroke:none" d="M 25.546875 -0.578125 L 24.8125 0.578125 L 9.578125 0.578125 L 8.578125 -0.515625 L 8.578125 -39.4375 L 9.265625 -40.265625 L 24.65625 -40.265625 L 25.546875 -39.34375 Z M 30.328125 -60.71875 C 28.078125 -60.507812 26.78125 -59.207031 26.4375 -56.8125 L 34.859375 -56.8125 L 35.4375 -56.296875 L 35.4375 -44.125 L 34.859375 -43.609375 L 0.515625 -43.609375 L -0.046875 -44.125 L -0.046875 -56.296875 L 0.515625 -56.8125 L 8.640625 -56.8125 C 8.847656 -62.226562 9.992188 -66.132812 12.078125 -68.53125 C 14.847656 -72.3125 19.320312 -74.335938 25.5 -74.609375 L 34.859375 -74.609375 L 35.484375 -73.78125 L 35.4375 -61.5 L 34.703125 -60.828125 Z M 30.328125 -60.71875 "/></g></g><g style="fill:#000000;fill-opacity:1;"><g transform="translate(216.487387, 222.723804)"><path style="stroke:none" d="M 25.546875 -0.578125 L 24.8125 0.578125 L 9.578125 0.578125 L 8.578125 -0.515625 L 8.578125 -39.4375 L 9.265625 -40.265625 L 24.65625 -40.265625 L 25.546875 -39.34375 Z M 30.328125 -60.71875 C 28.078125 -60.507812 26.78125 -59.207031 26.4375 -56.8125 L 34.859375 -56.8125 L 35.4375 -56.296875 L 35.4375 -44.125 L 34.859375 -43.609375 L 0.515625 -43.609375 L -0.046875 -44.125 L -0.046875 -56.296875 L 0.515625 -56.8125 L 8.640625 -56.8125 C 8.847656 -62.226562 9.992188 -66.132812 12.078125 -68.53125 C 14.847656 -72.3125 19.320312 -74.335938 25.5 -74.609375 L 34.859375 -74.609375 L 35.484375 -73.78125 L 35.4375 -61.5 L 34.703125 -60.828125 Z M 30.328125 -60.71875 "/></g></g><g style="fill:#000000;fill-opacity:1;"><g transform="translate(255.927263, 222.723804)"><path style="stroke:none" d="M 28.828125 -13.328125 L 29.34375 -13.9375 C 32.1875 -14.394531 34.664062 -15.785156 36.78125 -18.109375 C 39.382812 -20.921875 40.6875 -24.320312 40.6875 -28.3125 C 40.6875 -32.332031 39.382812 -35.765625 36.78125 -38.609375 C 34.632812 -40.898438 32.140625 -42.269531 29.296875 -42.71875 L 28.828125 -43.234375 L 28.828125 -56.609375 L 29.546875 -57.1875 C 36.003906 -56.664062 41.609375 -53.890625 46.359375 -48.859375 C 51.628906 -43.234375 54.265625 -36.453125 54.265625 -28.515625 C 54.265625 -20.566406 51.628906 -13.800781 46.359375 -8.21875 C 41.535156 -3.125 35.8125 -0.332031 29.1875 0.15625 L 28.828125 -0.359375 Z M 7.96875 -8.21875 C 2.65625 -13.800781 0 -20.566406 0 -28.515625 C 0 -36.453125 2.65625 -43.234375 7.96875 -48.859375 C 12.78125 -53.921875 18.46875 -56.695312 25.03125 -57.1875 L 25.5 -56.65625 L 25.5 -43.03125 L 25.1875 -42.671875 C 22.445312 -42.210938 20.035156 -40.859375 17.953125 -38.609375 C 15.347656 -35.765625 14.046875 -32.332031 14.046875 -28.3125 C 14.046875 -24.320312 15.347656 -20.921875 17.953125 -18.109375 C 19.960938 -15.890625 22.320312 -14.535156 25.03125 -14.046875 L 25.5 -13.265625 L 25.5 -0.359375 L 25.03125 0.109375 C 18.46875 -0.378906 12.78125 -3.15625 7.96875 -8.21875 Z M 7.96875 -8.21875 "/></g></g><g style="fill:#000000;fill-opacity:1;"><g transform="translate(212.493593, 263.905889)"><path style="stroke:none" d="M 12.15625 -21.75 C 10.613281 -21.5625 9.273438 -20.742188 8.140625 -19.296875 C 6.835938 -17.640625 6.1875 -15.640625 6.1875 -13.296875 C 6.1875 -10.953125 6.835938 -8.953125 8.140625 -7.296875 C 9.273438 -5.835938 10.613281 -5.019531 12.15625 -4.84375 L 12.15625 -0.015625 C 8.882812 -0.140625 6.070312 -1.4375 3.71875 -3.90625 C 1.238281 -6.507812 0 -9.648438 0 -13.328125 C 0 -17.015625 1.238281 -20.160156 3.71875 -22.765625 C 6.070312 -25.222656 8.882812 -26.515625 12.15625 -26.640625 Z M 17.53125 -19.296875 C 16.3125 -20.867188 14.84375 -21.695312 13.125 -21.78125 L 13.125 -26.65625 C 16.445312 -26.550781 19.300781 -25.253906 21.6875 -22.765625 C 22.90625 -21.492188 23.820312 -20.09375 24.4375 -18.5625 L 19.171875 -15.96875 C 18.859375 -17.195312 18.3125 -18.304688 17.53125 -19.296875 Z M 25.421875 -13.015625 C 25.347656 -9.460938 24.101562 -6.425781 21.6875 -3.90625 C 19.300781 -1.414062 16.445312 -0.113281 13.125 0 L 13.125 -4.796875 C 14.84375 -4.890625 16.3125 -5.722656 17.53125 -7.296875 C 17.75 -7.554688 17.941406 -7.832031 18.109375 -8.125 L 13.09375 -8.125 L 13.09375 -13.015625 Z M 25.421875 -13.015625 "/></g></g><g style="fill:#000000;fill-opacity:1;"><g transform="translate(239.59998, 263.905889)"><path style="stroke:none" d="M 10.515625 -15.46875 C 9.335938 -15.46875 8.351562 -15.140625 7.5625 -14.484375 L 7.28125 -14.640625 L 7.296875 -19.34375 L 7.484375 -19.609375 C 8.585938 -20.128906 9.597656 -20.390625 10.515625 -20.390625 Z M 6.046875 -20.359375 L 6.046875 -0.1875 L 5.859375 0 L 0.1875 0 L 0 -0.1875 L 0 -20.359375 Z M 6.046875 -20.359375 "/></g></g><g style="fill:#000000;fill-opacity:1;"><g transform="translate(251.707005, 263.905889)"><path style="stroke:none" d="M 10.265625 -4.75 L 10.453125 -4.96875 C 11.460938 -5.125 12.347656 -5.617188 13.109375 -6.453125 C 14.035156 -7.453125 14.5 -8.660156 14.5 -10.078125 C 14.5 -11.515625 14.035156 -12.738281 13.109375 -13.75 C 12.335938 -14.570312 11.445312 -15.0625 10.4375 -15.21875 L 10.265625 -15.40625 L 10.265625 -20.171875 L 10.53125 -20.375 C 12.832031 -20.1875 14.828125 -19.195312 16.515625 -17.40625 C 18.398438 -15.40625 19.34375 -12.988281 19.34375 -10.15625 C 19.34375 -7.332031 18.398438 -4.921875 16.515625 -2.921875 C 14.796875 -1.109375 12.757812 -0.113281 10.40625 0.0625 L 10.265625 -0.125 Z M 2.84375 -2.921875 C 0.945312 -4.921875 0 -7.332031 0 -10.15625 C 0 -12.988281 0.945312 -15.40625 2.84375 -17.40625 C 4.550781 -19.207031 6.578125 -20.195312 8.921875 -20.375 L 9.078125 -20.1875 L 9.078125 -15.328125 L 8.96875 -15.203125 C 8 -15.046875 7.140625 -14.5625 6.390625 -13.75 C 5.460938 -12.738281 5 -11.515625 5 -10.078125 C 5 -8.660156 5.460938 -7.453125 6.390625 -6.453125 C 7.109375 -5.660156 7.953125 -5.175781 8.921875 -5 L 9.078125 -4.734375 L 9.078125 -0.125 L 8.921875 0.03125 C 6.578125 -0.132812 4.550781 -1.117188 2.84375 -2.921875 Z M 2.84375 -2.921875 "/></g></g><g style="fill:#000000;fill-opacity:1;"><g transform="translate(273.251205, 263.905889)"><path style="stroke:none" d="M 13.25 -0.03125 L 13.25 -20.203125 L 13.4375 -20.390625 L 19.109375 -20.390625 L 19.296875 -20.203125 L 19.296875 -0.03125 Z M 12 -1.0625 L 11.8125 -0.59375 C 11.207031 -0.195312 10.195312 0 8.78125 0 C 6.257812 0 4.175781 -0.753906 2.53125 -2.265625 C 0.882812 -3.785156 0.0390625 -5.9375 0 -8.71875 L 0 -20.140625 L 0.109375 -20.375 L 5.859375 -20.390625 L 6.046875 -20.171875 L 6.046875 -7.6875 C 6.242188 -6.21875 7.21875 -5.421875 8.96875 -5.296875 C 10 -5.296875 10.914062 -5.644531 11.71875 -6.34375 L 12 -6.046875 Z M 12 -1.0625 "/></g></g><g style="fill:#000000;fill-opacity:1;"><g transform="translate(294.498756, 263.905889)"><path style="stroke:none" d="M 6.03125 6.125 L 5.796875 6.34375 L 0.265625 6.34375 L 0 6.15625 L 0 -20.109375 L 0.1875 -20.296875 L 5.859375 -20.296875 L 6.046875 -20.109375 Z M 7.484375 -19.75 C 8.503906 -20.144531 9.59375 -20.34375 10.75 -20.34375 C 13.363281 -20.34375 15.585938 -19.347656 17.421875 -17.359375 C 19.265625 -15.367188 20.1875 -12.960938 20.1875 -10.140625 C 20.1875 -7.328125 19.265625 -4.921875 17.421875 -2.921875 C 15.585938 -0.929688 13.363281 0.0625 10.75 0.0625 C 9.59375 0.0625 8.503906 -0.132812 7.484375 -0.53125 L 7.484375 -5.953125 C 8.367188 -5.171875 9.394531 -4.78125 10.5625 -4.78125 C 11.925781 -4.78125 13.085938 -5.296875 14.046875 -6.328125 C 15.015625 -7.367188 15.5 -8.628906 15.5 -10.109375 C 15.5 -11.578125 15.015625 -12.828125 14.046875 -13.859375 C 13.085938 -14.898438 11.925781 -15.421875 10.5625 -15.421875 C 9.394531 -15.421875 8.367188 -15.03125 7.484375 -14.25 Z M 7.484375 -19.75 "/></g></g></g></svg>